<svg xmlns="http://www.w3.org/2000/svg" id="Слой_1" data-name="Слой 1" viewBox="0 0 29 29">
  <defs/>
  <path d="M19.9 8.6h-8a3.5 3.5 0 00-3.5 3.5v8a3.5 3.5 0 003.5 3.5h8a3.5 3.5 0 003.5-3.5v-8a3.5 3.5 0 00-3.5-3.5zm-4 12.2a4.5 4.5 0 114.5-4.5 4.5 4.5 0 01-4.5 4.5zm4.5-9.2a1 1 0 01-1-1 1 1 0 012 0 1 1 0 01-1 1z" class="cls-1" transform="translate(-1.4 -1.5)"/>
  <path d="M15.9 13.4a2.9 2.9 0 102.9 3 2.9 2.9 0 00-3-3z" class="cls-1" transform="translate(-1.4 -1.5)"/>
  <path d="M15.9 1.5A14.5 14.5 0 1030.4 16 14.5 14.5 0 0015.9 1.5zM25 20a5.1 5.1 0 01-5.1 5.1h-8A5.1 5.1 0 016.8 20v-8a5.1 5.1 0 015-5.1h8A5.1 5.1 0 0125 12z" class="cls-1" transform="translate(-1.4 -1.5)"/>
</svg>
