<svg xmlns="http://www.w3.org/2000/svg" viewBox="0 0 31 31">
  <path fill="black" d="M15.5 0A15.5 15.5 0 1031 15.5 15.5 15.5 0 0015.5 0zm7.6 22h-2.5a1.9 1.9 0 01-1.3-.5c-.9-.6-1.8-2.3-2.5-2s-.7 1.7-.7 1.7a.7.7 0 01-.7.7h-1a7 7 0 01-4.9-2.2C7.1 17.2 5 12.2 5 12.2a.8.8 0 010-.5 1 1 0 01.6-.2h2.7a.8.8 0 01.5.2 1.4 1.4 0 01.2.3 13.9 13.9 0 001 2.1c1.2 2 1.7 2.4 2.1 2.2s.3-2.8.3-2.8a2.8 2.8 0 00-.3-1.3 1 1 0 00-.8-.4s.1-.4.4-.6a7.9 7.9 0 012.4-.2l1.4.1c1 .2.6 1.1.6 3.2 0 .7 0 1.7.3 2 .2.1.7 0 2-2.2a9.5 9.5 0 001-2 .8.8 0 01.2-.4 1 1 0 01.4 0h3s.8-.2 1 .2-.4 1.3-1.6 3c-1.9 2.5-2 2.2-.5 3.7a10.3 10.3 0 012 2.2c.6 1-.8 1.1-.8 1.1z"/>
</svg>
