<svg xmlns="http://www.w3.org/2000/svg" data-name="Layer 1" viewBox="0 0 569.5 362.9">
  <path d="M22 25h-1l1 11v70H5V3h24l21 78L71 3h24v103H78V36l1-11h-1l-21 81H43zM127 9c8-8 16-9 25-9s16 1 25 9c11 10 15 27 15 45s-4 35-15 46c-9 7-17 9-25 9s-17-2-25-9c-12-11-16-27-16-46s4-35 16-45zm10 77c5 6 10 7 15 7s9-1 14-7c7-8 8-21 8-32s-2-23-8-31c-5-6-10-7-14-7s-10 1-15 7c-6 8-8 21-8 31s2 24 8 32zM220 73a24 24 0 004 12c3 5 8 8 16 8 3 0 8-1 11-3 2-2 5-6 5-12s-2-9-5-11c-3-4-8-5-18-7-6-2-14-4-19-10-4-3-7-10-7-20 0-12 5-19 9-23 7-6 17-7 23-7 9 0 18 2 25 10 5 6 7 14 8 20h-17a16 16 0 00-3-8 16 16 0 00-13-6 15 15 0 00-10 2c-4 4-5 7-5 11 0 7 4 11 17 15 10 2 17 4 23 8 8 6 10 16 10 24s-1 16-9 23c-8 9-18 10-26 10s-17-1-25-8c-7-6-11-18-11-28zM361 71c-1 9-4 21-11 28-7 8-17 10-25 10-6 0-15-1-23-7-7-5-18-18-18-46 0-12 1-27 9-39 5-8 14-17 31-17 9 0 17 2 23 7 5 4 12 12 13 29h-17c0-4-1-9-4-13a17 17 0 00-14-7c-9 0-15 5-19 14-3 7-4 18-4 25 0 8 1 18 5 25 4 8 11 13 19 13a17 17 0 0014-8c4-6 4-13 4-14zM386 9c8-8 17-9 25-9s16 1 25 9c12 10 16 27 16 45s-4 35-16 46c-9 7-17 9-25 9s-17-2-25-9c-12-11-16-27-16-46s4-35 16-45zm10 77c5 6 10 7 15 7s9-1 14-7c7-8 8-21 8-32s-1-23-8-31c-5-6-10-7-14-7s-10 1-15 7c-6 8-8 21-8 31s2 24 8 32zM499 106h-21L456 3h18l16 80 14-80h18l14 80 16-80h17l-22 103h-20l-14-80zM22 152h-1l1 11v70H5V130h24l21 78 21-78h24v103H78v-70l1-11h-1l-21 81H43zM131 130v60c0 7 0 19 5 25a15 15 0 0024 0c6-7 5-18 5-25v-60h18v63c0 10-1 19-4 26-7 15-21 17-31 17s-23-2-30-17c-3-7-4-16-4-26v-63zM213 200a24 24 0 004 13c3 4 8 7 16 7 4 0 8-1 11-3s5-6 5-12-2-9-4-11c-3-3-9-4-19-7-5-2-13-4-19-10-3-3-7-10-7-20 0-12 6-19 10-23 7-6 16-7 23-7 8 0 18 2 25 10 4 6 7 14 7 20h-17a16 16 0 00-3-8 16 16 0 00-13-6 15 15 0 00-9 3c-4 3-5 7-5 10 0 7 4 11 17 15 9 2 17 4 22 8 8 6 10 16 10 24s-1 16-8 24c-8 8-19 9-27 9s-17-1-24-8c-7-6-11-18-12-28zM300 130v103h-18V130zM392 198c0 10-4 21-10 28-8 8-18 10-26 10-6 0-15-1-23-7-7-5-18-18-18-46 0-12 1-27 9-39 5-8 14-17 31-17 9 0 17 2 23 7 5 4 12 12 13 29h-17c0-4-1-9-4-13a17 17 0 00-14-7c-9 0-15 5-19 14-3 7-4 18-4 25 0 9 2 18 5 25 4 8 11 13 19 13a17 17 0 0014-8c4-6 4-13 4-14zM17 327a24 24 0 004 13c3 4 8 7 16 7 3 0 8-1 11-3 2-2 5-5 5-12 0-6-2-9-4-11-4-3-9-4-19-7-5-2-14-4-19-10-4-3-7-10-7-20 0-12 5-19 10-23 7-6 16-7 23-7 8 0 17 2 24 10 5 6 7 14 8 20H52a16 16 0 00-3-8 16 16 0 00-13-6 15 15 0 00-9 3c-5 3-5 7-5 10 0 8 3 11 17 15 9 2 17 4 22 8 8 7 10 16 10 24s-1 16-8 24c-9 8-19 9-27 9s-17-1-25-8c-7-6-11-18-11-28zM158 325c0 10-3 21-10 28-8 8-18 10-26 10-6 0-15-1-23-7-7-5-18-18-18-46 0-12 2-27 9-39 5-8 14-17 32-17 8 0 16 2 22 7 5 4 12 12 13 29h-17c0-4-1-9-4-13a17 17 0 00-14-7c-9 0-15 5-19 14-3 7-4 18-4 25 0 9 2 18 5 25 4 8 11 13 19 13a17 17 0 0015-8c3-6 3-13 3-14zM189 360h-17V257h17v41h33v-41h17v103h-17v-46h-33zM270 263c9-8 17-9 26-9s16 1 25 9c11 10 15 27 15 45s-4 35-15 46c-9 8-17 9-25 9s-17-2-26-9c-11-11-15-27-15-46s4-35 15-45zm11 77c5 6 10 7 15 7s9-1 14-7c6-8 8-21 8-32s-2-23-8-31c-5-6-10-7-14-7s-10 1-15 7c-6 8-8 22-8 31s2 24 8 32zM363 263c8-8 16-9 25-9s16 1 25 9c11 10 15 27 15 45s-4 35-15 46c-9 8-17 9-25 9s-17-2-26-9c-11-11-15-27-15-46s4-35 16-45zm10 77c5 6 10 7 15 7s9-1 14-7c7-8 8-21 8-32s-2-23-8-31c-5-6-10-7-14-7s-10 1-15 7c-6 8-8 22-8 31s2 24 8 32zM499 360h-55V257h17v87h38z"/>
</svg>
